<svg width="20" height="20" fill="none" xmlns="http://www.w3.org/2000/svg"><mask id="a" maskUnits="userSpaceOnUse" x="0" y="0" width="20" height="20"><path fill="#C4C4C4" d="M0 0h20v20H0z"/></mask><g mask="url(#a)" stroke="#000" stroke-width="1.5" stroke-linecap="round" stroke-linejoin="round"><circle cx="9.649" cy="5.648" r="3.982"/><path clip-rule="evenodd" d="M3.333 15.168c-.001-.28.062-.557.183-.809.381-.763 1.457-1.167 2.35-1.35.643-.137 1.296-.23 1.952-.275a20.872 20.872 0 013.654 0 14.14 14.14 0 011.953.275c.892.183 1.967.55 2.349 1.35.244.514.244 1.11 0 1.625-.381.8-1.457 1.167-2.35 1.342-.642.143-1.295.238-1.952.282-.99.084-1.983.1-2.975.046-.229 0-.45 0-.679-.046a12.852 12.852 0 01-1.945-.282c-.9-.175-1.968-.541-2.357-1.342a1.9 1.9 0 01-.183-.816z"/></g></svg>